#Comment line ignore any data following # character 
#Hierarchical Translation and Rotation (.htr) file 
[Header]	
#Header keywords are followed by a single value 
FileType HTR		#Single word string
DataType HTRS		#Translation followed by rotation and scale data
FileVersion 1		#integer
NumSegments 64		#integer
NumFrames 3		#integer
DataFrameRate 30		#integer, data frame rate in this file
EulerRotationOrder ZYX
CalibrationUnits mm
RotationUnits Degrees
GlobalAxisofGravity Y
BoneLengthAxis Y
ScaleFactor 1.00
[SegmentNames&Hierarchy]
#CHILD	PARENT
Pinger_Root GLOBAL
Pelvis Pinger_Root
L_Hip Pelvis
R_Hip Pelvis
Rear_Leg01 Pelvis
Spine1 Pelvis
L_Leg01 L_Hip
L_Leg02 L_Leg01
L_Leg03 L_Leg02
L_Foot L_Leg03
L_Toe1_01 L_Foot
L_Toe2_01 L_Foot
L_Toe3_01 L_Foot
planeAlignerLeft L_Foot
L_Toe1_02 L_Toe1_01
L_Toe1_03 L_Toe1_02
L_Toe2_02 L_Toe2_01
L_Toe2_03 L_Toe2_02
L_Toe3_02 L_Toe3_01
L_Toe3_03 L_Toe3_02
planeLockWeightLeft planeAlignerLeft
R_Leg01 R_Hip
R_Leg02 R_Leg01
R_Leg03 R_Leg02
R_Foot R_Leg03
planeAlignerRight R_Foot
R_Toe1_01 R_Foot
R_Toe2_01 R_Foot
R_Toe3_01 R_Foot
planeLockWeightRight planeAlignerRight
R_Toe1_02 R_Toe1_01
R_Toe1_03 R_Toe1_02
R_Toe2_02 R_Toe2_01
R_Toe2_03 R_Toe2_02
R_Toe3_02 R_Toe3_01
R_Toe3_03 R_Toe3_02
Rear_Leg02 Rear_Leg01
Rear_Leg03 Rear_Leg02
Rear_Leg04 Rear_Leg03
Rear_Foot Rear_Leg04
planeAlignerCenter Rear_Foot
Rear_Toe1_01 Rear_Foot
Rear_Toe2_01 Rear_Foot
Rear_Toe3_01 Rear_Foot
planeLockWeightCenter planeAlignerCenter
Rear_Toe1_02 Rear_Toe1_01
Rear_Toe1_03 Rear_Toe1_02
Rear_Toe2_02 Rear_Toe2_01
Rear_Toe2_03 Rear_Toe2_02
Rear_Toe3_02 Rear_Toe3_01
Rear_Toe3_03 Rear_Toe3_02
Back_Bone Spine1
Head Spine1
Motor_Bone Back_Bone
Ping_Mechanism Back_Bone
BN_LookIK Head
bottomMouth Head
L_Mouth01 Head
L_mouthFront Head
mouthGun Head
R_Mouth01 Head
R_mouthFront Head
TopMouth Head
weapon_bone Head
[BasePosition]
#SegmentName Tx, Ty, Tz, Rx, Ry, Rz, BoneLength
Pinger_Root 0.000000 0.000000 0.000000 -90.000000 0.000000 0.000000 10.000000 
Pelvis 0.000000 0.000000 0.000000 0.000000 0.000000 0.000000 10.000000 
L_Hip 0.000000 0.000000 0.000000 0.000000 0.000000 0.000000 10.000000 
R_Hip 0.000000 0.000000 0.000000 0.000000 0.000000 0.000000 10.000000 
Rear_Leg01 0.000000 0.000000 0.000000 0.000000 0.000000 0.000000 10.000000 
Spine1 0.000000 0.000000 0.000000 0.000000 0.000000 0.000000 10.000000 
L_Leg01 0.000000 0.000000 0.000000 0.000000 0.000000 0.000000 10.000000 
L_Leg02 0.000000 0.000000 0.000000 0.000000 0.000000 0.000000 10.000000 
L_Leg03 0.000000 0.000000 0.000000 0.000000 0.000000 0.000000 10.000000 
L_Foot 0.000000 0.000000 0.000000 0.000000 0.000000 0.000000 10.000000 
L_Toe1_01 0.000000 0.000000 0.000000 0.000000 0.000000 0.000000 10.000000 
L_Toe2_01 0.000000 0.000000 0.000000 0.000000 0.000000 0.000000 10.000000 
L_Toe3_01 0.000000 0.000000 0.000000 0.000000 0.000000 0.000000 10.000000 
planeAlignerLeft 0.000000 0.000000 0.000000 0.000000 0.000000 0.000000 10.000000 
L_Toe1_02 0.000000 0.000000 0.000000 0.000000 0.000000 0.000000 10.000000 
L_Toe1_03 0.000000 0.000000 0.000000 0.000000 0.000000 0.000000 10.000000 
L_Toe2_02 0.000000 0.000000 0.000000 0.000000 0.000000 0.000000 10.000000 
L_Toe2_03 0.000000 0.000000 0.000000 0.000000 0.000000 0.000000 10.000000 
L_Toe3_02 0.000000 0.000000 0.000000 0.000000 0.000000 0.000000 10.000000 
L_Toe3_03 0.000000 0.000000 0.000000 0.000000 0.000000 0.000000 10.000000 
planeLockWeightLeft 0.000000 0.000000 0.000000 0.000000 0.000000 0.000000 10.000000 
R_Leg01 0.000000 0.000000 0.000000 0.000000 0.000000 0.000000 10.000000 
R_Leg02 0.000000 0.000000 0.000000 0.000000 0.000000 0.000000 10.000000 
R_Leg03 0.000000 0.000000 0.000000 0.000000 0.000000 0.000000 10.000000 
R_Foot 0.000000 0.000000 0.000000 0.000000 0.000000 0.000000 10.000000 
planeAlignerRight 0.000000 0.000000 0.000000 0.000000 0.000000 0.000000 10.000000 
R_Toe1_01 0.000000 0.000000 0.000000 0.000000 0.000000 0.000000 10.000000 
R_Toe2_01 0.000000 0.000000 0.000000 0.000000 0.000000 0.000000 10.000000 
R_Toe3_01 0.000000 0.000000 0.000000 0.000000 0.000000 0.000000 10.000000 
planeLockWeightRight 0.000000 0.000000 0.000000 0.000000 0.000000 0.000000 10.000000 
R_Toe1_02 0.000000 0.000000 0.000000 0.000000 0.000000 0.000000 10.000000 
R_Toe1_03 0.000000 0.000000 0.000000 0.000000 0.000000 0.000000 10.000000 
R_Toe2_02 0.000000 0.000000 0.000000 0.000000 0.000000 0.000000 10.000000 
R_Toe2_03 0.000000 0.000000 0.000000 0.000000 0.000000 0.000000 10.000000 
R_Toe3_02 0.000000 0.000000 0.000000 0.000000 0.000000 0.000000 10.000000 
R_Toe3_03 0.000000 0.000000 0.000000 0.000000 0.000000 0.000000 10.000000 
Rear_Leg02 0.000000 0.000000 0.000000 0.000000 0.000000 0.000000 10.000000 
Rear_Leg03 0.000000 0.000000 0.000000 0.000000 0.000000 0.000000 10.000000 
Rear_Leg04 0.000000 0.000000 0.000000 0.000000 0.000000 0.000000 10.000000 
Rear_Foot 0.000000 0.000000 0.000000 0.000000 0.000000 0.000000 10.000000 
planeAlignerCenter 0.000000 0.000000 0.000000 0.000000 0.000000 0.000000 10.000000 
Rear_Toe1_01 0.000000 0.000000 0.000000 0.000000 0.000000 0.000000 10.000000 
Rear_Toe2_01 0.000000 0.000000 0.000000 0.000000 0.000000 0.000000 10.000000 
Rear_Toe3_01 0.000000 0.000000 0.000000 0.000000 0.000000 0.000000 10.000000 
planeLockWeightCenter 0.000000 0.000000 0.000000 0.000000 0.000000 0.000000 10.000000 
Rear_Toe1_02 0.000000 0.000000 0.000000 0.000000 0.000000 0.000000 10.000000 
Rear_Toe1_03 0.000000 0.000000 0.000000 0.000000 0.000000 0.000000 10.000000 
Rear_Toe2_02 0.000000 0.000000 0.000000 0.000000 0.000000 0.000000 10.000000 
Rear_Toe2_03 0.000000 0.000000 0.000000 0.000000 0.000000 0.000000 10.000000 
Rear_Toe3_02 0.000000 0.000000 0.000000 0.000000 0.000000 0.000000 10.000000 
Rear_Toe3_03 0.000000 0.000000 0.000000 0.000000 0.000000 0.000000 10.000000 
Back_Bone 0.000000 0.000000 0.000000 0.000000 0.000000 0.000000 10.000000 
Head 0.000000 0.000000 0.000000 0.000000 0.000000 0.000000 10.000000 
Motor_Bone 0.000000 0.000000 0.000000 0.000000 0.000000 0.000000 10.000000 
Ping_Mechanism 0.000000 0.000000 0.000000 0.000000 0.000000 0.000000 10.000000 
BN_LookIK 0.000000 0.000000 0.000000 0.000000 0.000000 0.000000 10.000000 
bottomMouth 0.000000 0.000000 0.000000 0.000000 0.000000 0.000000 10.000000 
L_Mouth01 0.000000 0.000000 0.000000 0.000000 0.000000 0.000000 10.000000 
L_mouthFront 0.000000 0.000000 0.000000 0.000000 0.000000 0.000000 10.000000 
mouthGun 0.000000 0.000000 0.000000 0.000000 0.000000 0.000000 10.000000 
R_Mouth01 0.000000 0.000000 0.000000 0.000000 0.000000 0.000000 10.000000 
R_mouthFront 0.000000 0.000000 0.000000 0.000000 0.000000 0.000000 10.000000 
TopMouth 0.000000 0.000000 0.000000 0.000000 0.000000 0.000000 10.000000 
weapon_bone 0.000000 0.000000 0.000000 0.000000 0.000000 0.000000 10.000000 
#Beginning of Data. Separated by tabs
#Fr	Tx	Ty	Tz	Rx	Ry	Rz	SF
[Pinger_Root]
297 0.000000 0.000000 0.000000 -0.000075 -0.000000 -0.000020 0.000000
298 0.000000 0.000000 0.000000 -0.000075 -0.000000 -0.000020 0.000000
299 0.000000 0.000000 0.000000 -0.000075 -0.000000 -0.000020 0.000000
[Pelvis]
297 -1138.910645 23935.812500 -4977.433594 -71.691643 -72.369797 69.828911 24474.375000
298 -1157.203125 23920.394531 -4937.729004 -72.427002 -71.740631 70.261543 24452.107422
299 -1174.465088 23908.169922 -4895.517578 -72.939598 -71.447319 70.471985 24432.480469
[L_Hip]
297 5.766392 125.831482 872.656799 160.313751 -60.928947 114.930176 881.701050
298 5.766392 125.831482 872.656799 160.122833 -59.622456 115.610573 881.701050
299 5.766392 125.831482 872.656799 159.968643 -58.315762 116.256996 881.701050
[R_Hip]
297 5.765438 125.836372 -872.654907 34.938782 63.963055 121.933533 881.699829
298 5.765438 125.836372 -872.654907 35.481647 62.776939 122.434898 881.699829
299 5.765438 125.836372 -872.654907 35.981564 61.589394 122.893135 881.699829
[Rear_Leg01]
297 -192.298416 -925.602966 -0.001907 175.671753 2.468020 -171.488098 945.367432
298 -192.298416 -925.602966 -0.001907 175.489716 2.915638 -172.644943 945.367432
299 -192.298416 -925.602966 -0.001907 175.290909 3.298598 -173.388931 945.367432
[Spine1]
297 290.604584 5.007505 0.000477 -0.221178 -5.079685 6.247283 290.647736
298 290.604584 5.007505 0.000477 0.151682 -5.117195 5.512005 290.647736
299 290.604584 5.007505 0.000477 0.515659 -5.107531 5.138988 290.647736
[L_Leg01]
297 761.932007 -0.002384 -0.069261 20.266691 -39.235477 -14.761595 761.932068
298 761.932007 -0.002384 -0.069261 18.555094 -38.362274 -13.022064 761.932068
299 761.932007 -0.002384 -0.069261 17.398954 -37.330193 -11.857092 761.932068
[L_Leg02]
297 1441.140503 -0.000954 -0.000715 2.914801 -0.041407 -125.112633 1441.140503
298 1441.140503 -0.000954 -0.000715 2.820488 -0.055952 -124.687729 1441.140503
299 1441.140503 -0.000954 -0.000715 2.695774 -0.072511 -124.000992 1441.140503
[L_Leg03]
297 1686.963989 -0.000715 -0.000954 -0.042879 0.019579 122.020920 1686.963989
298 1686.963989 -0.000715 -0.000954 -0.041640 0.018546 121.633087 1686.963989
299 1686.963989 -0.000715 -0.000954 -0.040394 0.017521 121.245216 1686.963989
[L_Foot]
297 3041.570068 -30.715107 11.297464 -3.133838 12.513404 43.580894 3041.746094
298 3041.570068 -30.715107 11.297464 -2.376024 12.567795 44.063679 3041.746094
299 3041.570068 -30.715107 11.297464 -1.617697 12.615939 44.547203 3041.746094
[L_Toe1_01]
297 -188.216690 -224.732346 -21.137953 88.300575 -5.393362 -170.391891 293.899567
298 -188.216690 -224.732346 -21.137953 88.784431 -5.522369 -170.890228 293.899567
299 -188.216690 -224.732346 -21.137953 89.231331 -5.634869 -171.190506 293.899567
[L_Toe2_01]
297 200.746536 -219.926590 148.838394 -87.970276 -21.957863 -44.600735 332.896027
298 200.746536 -219.926590 148.838394 -88.240913 -22.387079 -45.010349 332.896027
299 200.746536 -219.926590 148.838394 -88.443619 -22.735071 -45.556263 332.896027
[L_Toe3_01]
297 188.832520 -219.859131 -191.078659 -96.107864 22.138418 -54.497726 347.140900
298 188.832520 -219.859131 -191.078659 -96.393562 21.487844 -55.292984 347.140900
299 188.832520 -219.859131 -191.078659 -96.716232 20.884506 -56.244896 347.140900
[planeAlignerLeft]
297 0.812531 -811.448792 -0.314951 0.000000 -90.000000 -90.001900 811.449280
298 0.812531 -811.448792 -0.314951 0.000000 -90.000000 -90.001900 811.449280
299 0.812531 -811.448792 -0.314951 0.000000 -90.000000 -90.001900 811.449280
[L_Toe1_02]
297 413.761139 0.000477 0.000000 0.001384 -25.988823 0.001384 413.761139
298 413.761139 0.000477 0.000000 0.001384 -25.990091 0.001384 413.761139
299 413.761139 0.000477 0.000000 0.001384 -25.991360 0.001384 413.761139
[L_Toe1_03]
297 464.317322 0.000358 -0.000089 0.004090 56.648945 0.004090 464.317322
298 464.317322 0.000358 -0.000089 0.004104 56.765148 0.004104 464.317322
299 464.317322 0.000358 -0.000089 0.004118 56.881336 0.004118 464.317322
[L_Toe2_02]
297 342.235809 -0.000477 0.000238 0.001184 -74.968163 0.001184 342.235809
298 342.235809 -0.000477 0.000238 0.001184 -74.806374 0.001184 342.235809
299 342.235809 -0.000477 0.000238 0.001184 -74.644562 0.001184 342.235809
[L_Toe2_03]
297 420.210846 -0.000715 0.000000 -179.976395 87.402855 -179.972885 420.210846
298 420.210846 -0.000715 0.000000 -179.970581 87.885849 -179.967087 420.210846
299 420.210846 -0.000715 0.000000 -179.961349 88.369019 -179.957855 420.210846
[L_Toe3_02]
297 329.270111 0.000954 0.000000 0.001176 -82.601509 0.001176 329.270111
298 329.270111 0.000954 0.000000 0.001176 -82.496635 0.001176 329.270111
299 329.270111 0.000954 0.000000 0.001176 -82.391769 0.001176 329.270111
[L_Toe3_03]
297 439.137451 -0.001907 0.000954 179.998505 68.377312 -179.997040 439.137451
298 439.137451 -0.001907 0.000954 -179.998657 68.854256 -179.995087 439.137451
299 439.137451 -0.001907 0.000954 -179.998550 69.500916 -179.994995 439.137451
[planeLockWeightLeft]
297 -0.000954 0.000238 -0.000305 -0.011826 -0.004376 0.005620 0.001029
298 -0.000954 0.000238 -0.000305 -0.011826 -0.004376 0.005620 0.001029
299 -0.000954 0.000238 -0.000305 -0.011826 -0.004376 0.005620 0.001029
[R_Leg01]
297 761.455627 -0.001907 -0.000358 131.705826 -35.284512 19.874023 761.455688
298 761.455627 -0.001907 -0.000358 131.966492 -34.300888 18.894733 761.455688
299 761.455627 -0.001907 -0.000358 131.784836 -33.127537 18.448032 761.455688
[R_Leg02]
297 1441.140625 0.000000 -0.000238 -1.729432 -0.850442 -159.137680 1441.140625
298 1441.140625 0.000000 -0.000238 -1.734213 -0.811717 -156.402023 1441.140625
299 1441.140625 0.000000 -0.000238 -1.729680 -0.763817 -153.432602 1441.140625
[R_Leg03]
297 1686.963989 0.000954 0.001431 0.118606 -0.073116 142.744629 1686.963989
298 1686.963989 0.000954 0.001431 0.115333 -0.071999 142.141479 1686.963989
299 1686.963989 0.000954 0.001431 0.112677 -0.069733 141.384048 1686.963989
[R_Foot]
297 3041.560059 -30.531288 -11.204481 -0.351118 -22.742426 65.456970 3041.734131
298 3041.560059 -30.531288 -11.204481 -0.569337 -22.845573 64.272430 3041.734131
299 3041.560059 -30.531288 -11.204481 -0.478310 -22.961199 63.090603 3041.734131
[planeAlignerRight]
297 -0.635147 -812.270569 -0.364304 0.000000 -89.960434 -90.005180 812.270874
298 -0.635147 -812.270569 -0.364304 0.000000 -89.960434 -90.005180 812.270874
299 -0.635147 -812.270569 -0.364304 0.000000 -89.960434 -90.005180 812.270874
[R_Toe1_01]
297 -188.383347 -224.864899 21.052242 77.254929 -0.498252 -172.029953 294.101532
298 -188.383347 -224.864899 21.052242 76.852890 -0.438150 -172.547073 294.101532
299 -188.383347 -224.864899 21.052242 76.712753 -0.418330 -172.727707 294.101532
[R_Toe2_01]
297 200.637817 -220.002121 -148.787384 -91.917107 31.821182 -59.115444 332.857574
298 200.637817 -220.002121 -148.787384 -91.882202 32.569962 -59.164589 332.857574
299 200.637817 -220.002121 -148.787384 -91.860725 32.836853 -59.181713 332.857574
[R_Toe3_01]
297 188.606735 -220.092957 191.126343 -72.880844 -9.226274 -73.728210 347.192566
298 188.606735 -220.092957 191.126343 -73.061226 -8.630257 -73.742523 347.192566
299 188.606735 -220.092957 191.126343 -73.133499 -8.420358 -73.743767 347.192566
[planeLockWeightRight]
297 -0.000477 0.000000 0.000000 -0.011823 -0.004379 -0.000027 0.000477
298 -0.000477 0.000000 0.000000 -0.011823 -0.004379 -0.000027 0.000477
299 -0.000477 0.000000 0.000000 -0.011823 -0.004379 -0.000027 0.000477
[R_Toe1_02]
297 413.762085 0.000477 -0.000119 0.001393 -24.780996 0.001393 413.762085
298 413.762085 0.000477 -0.000119 0.001393 -24.765804 0.001393 413.762085
299 413.762085 0.000477 -0.000119 0.001393 -24.750614 0.001393 413.762085
[R_Toe1_03]
297 464.317810 0.000000 0.001088 0.006534 69.304688 0.006534 464.317810
298 464.317810 0.000000 0.001088 0.006606 69.533142 0.006606 464.317810
299 464.317810 0.000000 0.001088 0.006607 69.536507 0.006607 464.317810
[R_Toe2_02]
297 342.234741 -0.000954 0.000238 0.001197 -67.099915 0.001197 342.234741
298 342.234741 -0.000954 0.000238 0.001197 -67.115051 0.001197 342.234741
299 342.234741 -0.000954 0.000238 0.001197 -67.130226 0.001197 342.234741
[R_Toe2_03]
297 420.210846 0.000715 -0.000268 0.008140 73.420876 0.008140 420.210846
298 420.210846 0.000715 -0.000268 0.008222 73.587334 0.008222 420.210846
299 420.210846 0.000715 -0.000268 0.008223 73.588730 0.008223 420.210846
[R_Toe3_02]
297 329.270355 -0.000477 -0.000954 0.001185 -74.189629 0.001185 329.270355
298 329.270355 -0.000477 -0.000954 0.001185 -74.354149 0.001185 329.270355
299 329.270355 -0.000477 -0.000954 0.001184 -74.518616 0.001184 329.270355
[R_Toe3_03]
297 439.137939 0.000238 0.001431 0.018027 82.534737 0.018027 439.137939
298 439.137939 0.000238 0.001431 -0.011305 83.101898 -0.007802 439.137939
299 439.137939 0.000238 0.001431 -0.011597 83.306831 -0.008094 439.137939
[Rear_Leg02]
297 1162.777710 -0.029802 0.005960 3.071516 -20.625004 -120.484825 1162.777710
298 1162.777710 -0.029802 0.005960 2.626022 -20.748922 -119.263153 1162.777710
299 1162.777710 -0.029802 0.005960 2.177454 -20.863918 -118.039505 1162.777710
[Rear_Leg03]
297 607.192505 -0.013351 -0.073195 0.006491 -0.002061 63.440205 607.192505
298 607.192505 -0.013351 -0.073195 0.006499 -0.002035 62.990715 607.192505
299 607.192505 -0.013351 -0.073195 0.006507 -0.002010 62.541237 607.192505
[Rear_Leg04]
297 995.874512 -0.020504 -0.011921 -0.040288 -0.015775 56.504990 995.874573
298 995.874512 -0.020504 -0.011921 -0.040160 -0.016093 55.598141 995.874573
299 995.874512 -0.020504 -0.011921 -0.040028 -0.016409 54.691402 995.874573
[Rear_Foot]
297 3096.176270 -0.067472 -0.041425 -138.072205 65.638824 58.547821 3096.176270
298 3096.176270 -0.067472 -0.041425 -136.664886 65.881760 59.327766 3096.176270
299 3096.176270 -0.067472 -0.041425 -135.563797 66.156731 59.983337 3096.176270
[planeAlignerCenter]
297 0.350077 0.966311 -838.790894 0.000009 0.000003 -179.999985 838.791565
298 0.350077 0.966311 -838.790894 0.000009 0.000003 -179.999985 838.791565
299 0.350077 0.966311 -838.790894 0.000009 0.000003 -179.999985 838.791565
[Rear_Toe1_01]
297 0.653352 83.966492 -371.173737 0.326512 15.012349 90.773445 380.553192
298 0.653352 83.966492 -371.173737 0.352102 15.900240 90.797455 380.553192
299 0.653352 83.966492 -371.173737 0.378198 16.788126 90.821991 380.553192
[Rear_Toe2_01]
297 178.200760 -294.826019 -362.060547 -6.773449 24.970266 -67.582039 499.765686
298 178.200760 -294.826019 -362.060547 -6.935357 24.716394 -67.843727 499.765686
299 178.200760 -294.826019 -362.060547 -7.056090 24.729481 -68.065758 499.765686
[Rear_Toe3_01]
297 -153.359680 -308.780914 -362.060852 2.143070 24.025312 -112.219666 499.952881
298 -153.359680 -308.780914 -362.060852 2.289786 23.815552 -112.017563 499.952881
299 -153.359680 -308.780914 -362.060852 2.435455 23.605314 -111.816353 499.952881
[planeLockWeightCenter]
297 -0.000062 0.000238 0.000000 -0.011814 -0.004373 -0.000015 0.000246
298 -0.000062 0.000238 0.000000 -0.011814 -0.004373 -0.000015 0.000246
299 -0.000062 0.000238 0.000000 -0.011814 -0.004373 -0.000015 0.000246
[Rear_Toe1_02]
297 379.707825 0.194073 0.000477 -0.002649 -32.586742 -0.002649 379.707855
298 379.707825 0.194073 0.000477 -0.002650 -32.501217 -0.002650 379.707855
299 379.707825 0.194073 0.000477 -0.002651 -32.415695 -0.002651 379.707855
[Rear_Toe1_03]
297 500.129700 0.165701 0.000119 -179.970535 87.622818 -179.974045 500.129761
298 500.129700 0.165701 0.000119 -179.977386 86.844330 -179.980881 500.129761
299 500.129700 0.165701 0.000119 -179.980515 86.287117 -179.984009 500.129761
[Rear_Toe2_02]
297 340.494507 0.000238 -0.000954 0.001198 -66.898369 0.001198 340.494507
298 340.494507 0.000238 -0.000954 0.001200 -65.766441 0.001200 340.494507
299 340.494507 0.000238 -0.000954 0.001204 -64.451866 0.001204 340.494507
[Rear_Toe2_03]
297 433.103577 0.000000 0.000238 0.005527 65.473763 0.005527 433.103546
298 433.103577 0.000000 0.000238 0.005183 63.825661 0.005183 433.103546
299 433.103577 0.000000 0.000238 0.004862 62.046703 0.004862 433.103546
[Rear_Toe3_02]
297 340.494141 -0.000358 -0.000477 0.000654 -62.434605 -0.004239 340.494171
298 340.494141 -0.000358 -0.000477 -0.002399 -61.080292 -0.002399 340.494171
299 340.494141 -0.000358 -0.000477 -0.002409 -59.497772 -0.002409 340.494171
[Rear_Toe3_03]
297 433.103577 0.001431 -0.000238 -0.000360 59.326530 -0.003987 433.103546
298 433.103577 0.001431 -0.000238 -0.000233 57.510242 -0.003876 433.103546
299 433.103577 0.001431 -0.000238 -0.000112 55.573208 -0.003775 433.103546
[Back_Bone]
297 1312.175781 -701.934692 0.000954 1.339765 -0.004589 -87.312737 1488.125488
298 1312.175781 -701.934692 0.000954 1.350192 -0.009350 -87.028557 1488.125488
299 1312.175781 -701.934692 0.000954 1.360594 -0.014162 -86.744385 1488.125488
[Head]
297 1406.159424 809.709290 0.001431 0.731059 -0.363593 7.027170 1622.625488
298 1406.159424 809.709290 0.001431 0.670537 -0.449710 7.091246 1622.625488
299 1406.159424 809.709290 0.001431 0.609919 -0.535757 7.155414 1622.625488
[Motor_Bone]
297 1158.364380 -417.834747 0.000477 -1.944046 -0.557142 -106.542122 1231.419434
298 1158.364380 -417.834747 0.000477 -1.693136 -0.277869 -106.263275 1231.419434
299 1158.364380 -417.834747 0.000477 -1.440868 0.000215 -105.983154 1231.419434
[Ping_Mechanism]
297 1305.892456 -459.865753 29.751369 0.000103 -0.000053 82.120995 1384.816528
298 1308.579102 -460.452881 30.192343 0.000103 -0.000053 82.120995 1387.554565
299 1309.472656 -460.770264 30.436245 0.000103 -0.000053 82.120995 1388.507935
[BN_LookIK]
297 193.241119 1380.371704 -0.002861 0.000000 89.965736 -31.038179 1393.832153
298 193.241119 1380.371704 -0.002861 0.000000 89.965736 -31.038179 1393.832153
299 193.241119 1380.371704 -0.002861 0.000000 89.965736 -31.038179 1393.832153
[bottomMouth]
297 -435.092926 615.759399 -0.000954 -0.000022 0.000016 73.527184 753.966492
298 -435.092926 615.759399 -0.000954 -0.000022 0.000016 73.527184 753.966492
299 -435.092926 615.759399 -0.000954 -0.000022 0.000016 73.527184 753.966492
[L_Mouth01]
297 554.440979 7.658243 838.222046 150.204178 23.759130 109.605339 1005.027161
298 554.440979 7.658243 838.222046 150.204178 23.759130 109.605339 1005.027161
299 554.440979 7.658243 838.222046 150.204178 23.759130 109.605339 1005.027161
[L_mouthFront]
297 551.629089 934.514771 339.150421 0.000081 2.804060 79.119301 1136.941284
298 551.629089 934.514771 339.150421 0.000081 2.804060 79.119301 1136.941284
299 551.629089 934.514771 339.150421 0.000081 2.804060 79.119301 1136.941284
[mouthGun]
297 55.332661 1627.420898 0.000000 0.000023 0.000009 -11.038128 1628.361328
298 55.332661 1627.420898 0.000000 0.000023 0.000009 -11.038128 1628.361328
299 55.332661 1627.420898 0.000000 0.000023 0.000009 -11.038128 1628.361328
[R_Mouth01]
297 554.442383 7.659197 -838.223938 29.795891 -23.759109 109.605331 1005.029541
298 554.442383 7.659197 -838.223938 29.795891 -23.759109 109.605331 1005.029541
299 554.442383 7.659197 -838.223938 29.795891 -23.759109 109.605331 1005.029541
[R_mouthFront]
297 551.629089 934.514282 -339.151367 0.000029 -2.803930 79.119133 1136.941162
298 551.629089 934.514282 -339.151367 0.000029 -2.803930 79.119133 1136.941162
299 551.629089 934.514282 -339.151367 0.000029 -2.803930 79.119133 1136.941162
[TopMouth]
297 461.269867 -56.106091 -0.008583 -0.000059 -0.000268 92.025169 464.669525
298 461.269867 -56.106091 -0.008583 -0.000059 -0.000268 92.025169 464.669525
299 461.269867 -56.106091 -0.008583 -0.000059 -0.000268 92.025169 464.669525
[weapon_bone]
297 -987.239868 1448.372803 0.001431 0.000000 89.965736 -31.038221 1752.833740
298 -987.239868 1448.372803 0.001431 0.000000 89.965736 -31.038221 1752.833740
299 -987.239868 1448.372803 0.001431 0.000000 89.965736 -31.038221 1752.833740
